<svg width="24" height="24" viewBox="0 0 24 24" fill="none" xmlns="http://www.w3.org/2000/svg">
  <path d="M12 3C7.02944 3 3 7.02944 3 12C3 16.9706 7.02944 21 12 21C16.9706 21 21 16.9706 21 12C21 7.02944 16.9706 3 12 3Z" stroke="currentColor" stroke-width="1.8"/>
  <path d="M8.5 5.2C6.98 6.86 6 9.25 6 12C6 14.75 6.98 17.14 8.5 18.8" stroke="currentColor" stroke-width="1.8" stroke-linecap="round"/>
  <path d="M15.5 5.2C17.02 6.86 18 9.25 18 12C18 14.75 17.02 17.14 15.5 18.8" stroke="currentColor" stroke-width="1.8" stroke-linecap="round"/>
  <path d="M4.5 9H19.5" stroke="currentColor" stroke-width="1.8" stroke-linecap="round"/>
  <path d="M4.5 15H19.5" stroke="currentColor" stroke-width="1.8" stroke-linecap="round"/>
  <path d="M12 3.5C13.65 5.25 14.7 8.19 14.7 12C14.7 15.81 13.65 18.75 12 20.5" stroke="currentColor" stroke-width="1.8" stroke-linecap="round"/>
  <path d="M12 3.5C10.35 5.25 9.3 8.19 9.3 12C9.3 15.81 10.35 18.75 12 20.5" stroke="currentColor" stroke-width="1.8" stroke-linecap="round"/>
</svg>
